<?xml version="1.0" standalone="no"?>
<!DOCTYPE svg PUBLIC "-//W3C//DTD SVG 20010904//EN"
 "http://www.w3.org/TR/2001/REC-SVG-20010904/DTD/svg10.dtd">
<svg version="1.0" xmlns="http://www.w3.org/2000/svg"
 width="394.000000pt" height="244.000000pt" viewBox="0 0 394.000000 244.000000"
 preserveAspectRatio="xMidYMid meet">

<g transform="translate(0.000000,244.000000) scale(0.100000,-0.100000)"
fill="#000000" stroke="none">
<path d="M1795 2404 c-145 -20 -195 -29 -295 -55 -208 -53 -510 -188 -518
-232 -2 -10 28 -70 66 -135 388 -657 874 -1475 895 -1509 55 -88 64 -80 208
175 212 377 669 1192 746 1328 40 72 73 138 73 146 0 54 -292 185 -530 237
-47 11 -110 24 -140 31 -53 12 -444 23 -505 14z m505 -99 c114 -20 241 -53
320 -82 119 -44 250 -105 250 -116 0 -19 -105 -197 -116 -197 -21 0 -184 59
-290 105 -197 87 -295 101 -498 70 -55 -8 -136 -15 -180 -15 -119 0 -248 -17
-313 -42 -32 -11 -104 -50 -161 -85 -57 -36 -106 -62 -109 -59 -19 19 -120
202 -116 210 9 14 223 113 306 140 127 42 271 72 427 90 74 9 399 -4 480 -19z
m-61 -295 c28 -5 113 -36 189 -68 75 -32 170 -69 210 -81 40 -13 72 -29 72
-36 0 -10 -640 -1161 -697 -1254 -8 -13 -18 -19 -23 -15 -4 5 -81 133 -171
284 -89 151 -252 425 -361 609 -109 184 -198 341 -198 348 0 13 117 96 185
130 70 36 115 44 320 59 110 9 225 19 255 23 81 12 160 12 219 1z"/>
<path d="M2120 1807 c-40 -14 -80 -67 -80 -107 0 -34 37 -91 70 -107 80 -41
170 18 170 112 0 26 -8 44 -32 69 -38 40 -78 50 -128 33z"/>
<path d="M1542 1779 c-37 -38 -47 -77 -32 -123 42 -127 230 -94 230 41 0 38
-5 50 -34 79 -30 30 -40 34 -84 34 -42 0 -54 -5 -80 -31z"/>
<path d="M2436 1785 c-57 -20 -68 -41 -36 -70 19 -17 24 -17 68 -4 42 13 47
18 47 43 0 37 -28 48 -79 31z"/>
<path d="M1850 1761 c-8 -16 -5 -25 14 -48 21 -24 26 -26 50 -15 30 13 32 28
10 60 -19 27 -60 29 -74 3z"/>
<path d="M1400 1745 c-28 -34 32 -93 65 -65 18 15 19 52 3 68 -17 17 -53 15
-68 -3z"/>
<path d="M1922 1598 c-16 -16 -15 -48 4 -122 18 -69 29 -86 55 -86 34 0 40 32
23 112 -22 95 -50 128 -82 96z"/>
<path d="M2362 1523 c-14 -26 3 -61 32 -69 34 -8 46 2 46 36 0 45 -59 69 -78
33z"/>
<path d="M1600 1437 c-30 -10 -35 -17 -35 -42 0 -27 4 -30 34 -33 18 -2 47 2
63 9 24 10 29 17 26 43 -4 36 -30 43 -88 23z"/>
<path d="M2122 1288 c-17 -17 -15 -42 6 -61 22 -20 43 -22 60 -5 17 17 15 42
-6 61 -22 20 -43 22 -60 5z"/>
<path d="M1833 1236 c-91 -41 -80 -188 16 -217 50 -15 86 -6 122 31 24 24 29
37 29 79 0 41 -5 56 -27 81 -33 37 -91 48 -140 26z m85 -103 c4 -28 -32 -50
-54 -32 -15 12 -19 41 -7 53 16 15 58 1 61 -21z"/>
<path d="M2080 1085 c-20 -53 -40 -144 -34 -159 3 -8 15 -18 27 -22 30 -9 49
19 71 104 15 58 16 75 6 87 -20 24 -59 19 -70 -10z"/>
<path d="M948 1701 c-221 -129 -485 -392 -628 -626 -104 -169 -202 -405 -245
-590 -45 -195 -60 -427 -28 -439 20 -8 3849 -7 3869 1 30 11 4 289 -46 475
-65 247 -195 512 -344 703 -55 70 -166 187 -264 278 -107 98 -294 227 -329
227 -27 0 -29 -2 -209 -315 -76 -132 -192 -334 -259 -450 -67 -116 -202 -351
-301 -522 -98 -172 -181 -313 -184 -313 -3 0 -47 73 -99 163 -52 89 -131 225
-176 302 -45 77 -209 361 -365 630 -254 441 -300 515 -320 515 -3 0 -35 -18
-72 -39z m118 -166 c29 -50 53 -92 53 -95 1 -10 -165 -147 -253 -210 -167
-119 -210 -173 -295 -372 -32 -73 -78 -169 -102 -213 -58 -105 -95 -190 -105
-245 -4 -25 -8 -106 -8 -180 l-1 -135 -120 0 -120 0 -3 45 c-4 49 21 238 44
338 85 370 300 730 581 974 111 96 243 190 262 186 8 -2 39 -44 67 -93z m1978
38 c367 -257 631 -636 746 -1071 25 -91 60 -316 60 -378 l0 -44 -125 0 -125 0
0 148 c0 183 -7 207 -111 412 -43 85 -105 211 -138 280 -33 69 -74 142 -91
162 -17 21 -100 90 -183 153 -166 126 -237 187 -237 204 0 18 101 191 112 191
6 0 47 -26 92 -57z m-1510 -847 c201 -348 366 -636 366 -640 0 -8 -1423 -8
-1444 0 -14 5 -16 28 -16 149 0 168 7 193 103 376 36 68 84 169 107 223 71
171 116 225 281 341 43 30 110 83 151 119 40 36 76 66 79 66 4 0 171 -285 373
-634z m1506 432 c168 -123 192 -154 286 -375 25 -58 65 -141 89 -184 25 -42
57 -108 72 -146 26 -64 28 -77 28 -218 l0 -150 -727 -3 c-747 -2 -752 -2 -719
33 5 6 163 278 351 605 188 327 348 605 356 618 l15 23 67 -59 c37 -32 119
-97 182 -144z"/>
<path d="M1075 1136 c-10 -15 -15 -40 -13 -63 3 -35 5 -38 33 -38 26 0 32 5
43 40 23 71 -26 118 -63 61z"/>
<path d="M1259 942 c-40 -33 3 -83 52 -59 28 14 36 42 19 62 -17 20 -43 19
-71 -3z"/>
<path d="M914 896 c-29 -29 -34 -41 -34 -79 0 -129 170 -167 222 -50 38 87
-14 163 -113 163 -33 0 -47 -6 -75 -34z"/>
<path d="M792 628 c-25 -25 -6 -68 30 -68 10 0 27 9 38 20 16 16 18 25 10 40
-12 23 -59 27 -78 8z"/>
<path d="M1335 600 c-17 -19 -17 -21 0 -40 35 -38 90 -17 83 32 -4 32 -56 37
-83 8z"/>
<path d="M970 585 c-23 -27 -7 -49 54 -73 32 -13 77 -24 100 -25 37 -2 41 0
44 24 4 32 -7 41 -86 68 -73 25 -95 26 -112 6z"/>
<path d="M1488 489 c-28 -16 -22 -38 28 -96 52 -61 77 -77 104 -68 38 12 25
55 -37 117 -60 61 -67 64 -95 47z"/>
<path d="M674 455 c-112 -57 -68 -225 60 -225 46 0 103 48 111 94 18 94 -86
174 -171 131z m86 -94 c7 -15 6 -23 -6 -35 -19 -19 -25 -20 -48 -3 -13 10 -16
20 -12 35 9 28 51 30 66 3z"/>
<path d="M1294 394 c-72 -35 -85 -142 -24 -197 46 -41 108 -38 157 6 31 29 36
40 36 78 0 55 -25 97 -70 115 -41 18 -60 17 -99 -2z m81 -103 c0 -34 -30 -51
-51 -29 -25 24 -10 60 24 56 21 -2 27 -8 27 -27z"/>
<path d="M963 258 c-17 -21 -34 -84 -27 -101 8 -21 32 -29 54 -17 26 14 44 83
30 110 -12 22 -42 26 -57 8z"/>
<path d="M583 234 c-7 -3 -13 -19 -13 -35 0 -22 6 -30 24 -35 37 -9 68 12 64
44 -2 22 -8 27 -33 29 -16 1 -36 0 -42 -3z"/>
<path d="M2728 1066 c-8 -7 -22 -47 -33 -89 -20 -81 -14 -107 26 -107 44 0 93
189 53 204 -23 9 -31 8 -46 -8z"/>
<path d="M2884 951 c-61 -37 -70 -128 -18 -182 35 -36 80 -45 127 -26 48 20
72 60 71 116 -1 38 -6 49 -37 78 -43 39 -94 44 -143 14z"/>
<path d="M2646 761 c-20 -22 -10 -53 25 -71 44 -24 69 45 27 74 -28 20 -31 20
-52 -3z"/>
<path d="M3170 607 c-29 -15 -37 -48 -16 -66 19 -16 89 -6 106 14 6 8 10 24 8
37 -2 18 -10 24 -38 26 -19 1 -46 -4 -60 -11z"/>
<path d="M2823 574 c-7 -20 2 -99 19 -149 11 -35 17 -40 43 -40 24 0 31 5 33
24 4 27 -16 136 -30 164 -11 21 -57 23 -65 1z"/>
<path d="M2396 521 c-14 -15 -15 -24 -7 -40 19 -35 50 -45 72 -25 24 22 24 39
-1 64 -25 25 -42 25 -64 1z"/>
<path d="M2614 391 c-63 -39 -81 -99 -49 -161 21 -41 53 -60 102 -60 33 0 50
7 77 31 44 39 54 83 30 134 -31 66 -104 92 -160 56z"/>
<path d="M3153 390 c-50 -30 -66 -63 -60 -117 7 -67 48 -103 116 -103 41 0 54
5 79 30 62 61 46 156 -32 191 -52 23 -64 23 -103 -1z m82 -105 c0 -25 -4 -30
-24 -30 -32 0 -49 28 -31 50 7 9 23 15 34 13 16 -2 21 -10 21 -33z"/>
<path d="M3351 286 c-23 -28 27 -84 63 -70 23 9 28 35 11 60 -17 27 -56 32
-74 10z"/>
<path d="M2373 280 c-41 -9 -63 -27 -63 -51 0 -27 30 -39 72 -30 49 11 58 18
58 46 0 31 -26 44 -67 35z"/>
<path d="M2902 278 c-31 -31 8 -85 53 -74 30 8 34 45 7 69 -22 20 -43 22 -60
5z"/>
</g>
</svg>
